<?xml version="1.0" encoding="UTF-8"?>
<!DOCTYPE svg PUBLIC "-//W3C//DTD SVG 1.1//EN" "http://www.w3.org/Graphics/SVG/1.1/DTD/svg11.dtd">
<svg xmlns="http://www.w3.org/2000/svg" version="1.1" width="512px" height="512px" style="shape-rendering:geometricPrecision; text-rendering:geometricPrecision; image-rendering:optimizeQuality; fill-rule:evenodd; clip-rule:evenodd" xmlns:xlink="http://www.w3.org/1999/xlink">
<g><path style="opacity:0.989" fill="#1a83a8" d="M 418.5,233.5 C 411.496,232.66 406.663,228.993 404,222.5C 403.667,176.167 403.333,129.833 403,83.5C 398.39,62.5566 385.557,50.0566 364.5,46C 277.5,45.3333 190.5,45.3333 103.5,46C 83.883,50.283 71.383,62.1163 66,81.5C 65.3333,192.833 65.3333,304.167 66,415.5C 69.3199,434.488 80.1532,446.988 98.5,453C 150.796,454.311 203.13,454.978 255.5,455C 261.716,457.381 265.049,461.881 265.5,468.5C 265.44,476.061 261.774,480.894 254.5,483C 203.833,483.667 153.167,483.667 102.5,483C 66.4521,477.618 44.6188,457.118 37,421.5C 36.3333,307.167 36.3333,192.833 37,78.5C 44.4948,43.339 65.9948,22.839 101.5,17C 190.167,16.3333 278.833,16.3333 367.5,17C 404.333,23.1667 425.833,44.6667 432,81.5C 432.667,128.167 432.667,174.833 432,221.5C 430.056,228.387 425.556,232.387 418.5,233.5 Z"/></g>
<g><path style="opacity:1" fill="#ccf5f8" d="M 418.5,233.5 C 418.5,243.833 418.5,254.167 418.5,264.5C 381.488,244.213 350.321,250.88 325,284.5C 312.246,307.639 312.579,330.639 326,353.5C 342.814,377.222 365.648,386.722 394.5,382C 402.878,379.639 410.878,376.472 418.5,372.5C 418.5,381.167 418.5,389.833 418.5,398.5C 386.165,398.333 353.832,398.5 321.5,399C 303.667,403.5 292.5,414.667 288,432.5C 287.242,438.891 287.576,445.224 289,451.5C 291.333,457.499 294.166,463.165 297.5,468.5C 286.833,468.5 276.167,468.5 265.5,468.5C 265.049,461.881 261.716,457.381 255.5,455C 203.13,454.978 150.796,454.311 98.5,453C 80.1532,446.988 69.3199,434.488 66,415.5C 65.3333,304.167 65.3333,192.833 66,81.5C 71.383,62.1163 83.883,50.283 103.5,46C 190.5,45.3333 277.5,45.3333 364.5,46C 385.557,50.0566 398.39,62.5566 403,83.5C 403.333,129.833 403.667,176.167 404,222.5C 406.663,228.993 411.496,232.66 418.5,233.5 Z"/></g>
<g><path style="opacity:1" fill="#1b83a8" d="M 121.5,104.5 C 196.834,104.333 272.167,104.5 347.5,105C 357.362,109.288 360.196,116.454 356,126.5C 353.635,129.869 350.468,132.036 346.5,133C 271.5,133.667 196.5,133.667 121.5,133C 110.475,127.801 107.975,119.967 114,109.5C 116.426,107.548 118.926,105.881 121.5,104.5 Z"/></g>
<g><path style="opacity:1" fill="#1e84a9" d="M 121.5,191.5 C 196.167,191.333 270.834,191.5 345.5,192C 357.737,196.032 360.904,203.865 355,215.5C 353.048,217.894 350.548,219.394 347.5,220C 271.833,220.667 196.167,220.667 120.5,220C 111.028,215.249 108.528,208.082 113,198.5C 115.441,195.546 118.275,193.213 121.5,191.5 Z"/></g>
<g><path style="opacity:0.998" fill="#1c83a8" d="M 418.5,264.5 C 441.355,281.544 450.188,304.211 445,332.5C 441.075,349.227 432.241,362.561 418.5,372.5C 410.878,376.472 402.878,379.639 394.5,382C 365.648,386.722 342.814,377.222 326,353.5C 312.579,330.639 312.246,307.639 325,284.5C 350.321,250.88 381.488,244.213 418.5,264.5 Z"/></g>
<g><path style="opacity:1" fill="#1a83a8" d="M 119.5,279.5 C 173.501,279.333 227.501,279.5 281.5,280C 291.219,284.611 293.719,291.777 289,301.5C 287.125,304.187 284.625,306.021 281.5,307C 227.5,307.667 173.5,307.667 119.5,307C 107.54,297.8 107.54,288.633 119.5,279.5 Z"/></g>
<g><path style="opacity:1" fill="#fdfefe" d="M 371.5,282.5 C 398.076,279.921 413.409,291.754 417.5,318C 414.256,343.907 399.589,355.907 373.5,354C 353.219,347.613 343.719,333.78 345,312.5C 348.067,297.342 356.9,287.342 371.5,282.5 Z"/></g>
<g><path style="opacity:1" fill="#1c84a8" d="M 120.5,366.5 C 171.834,366.333 223.168,366.5 274.5,367C 285.604,371.982 288.104,379.815 282,390.5C 279.531,392.652 276.698,394.152 273.5,395C 222.833,395.667 172.167,395.667 121.5,395C 111.266,390.356 108.432,382.856 113,372.5C 115.114,369.879 117.614,367.879 120.5,366.5 Z"/></g>
<g><path style="opacity:0.995" fill="#1b83a8" d="M 418.5,398.5 C 441.895,394.289 459.395,402.289 471,422.5C 478.934,447.798 471.767,467.631 449.5,482C 436.265,488.476 422.265,492.142 407.5,493C 378.017,496.271 349.017,493.937 320.5,486C 311.512,481.838 303.845,476.004 297.5,468.5C 294.166,463.165 291.333,457.499 289,451.5C 287.576,445.224 287.242,438.891 288,432.5C 292.5,414.667 303.667,403.5 321.5,399C 353.832,398.5 386.165,398.333 418.5,398.5 Z"/></g>
<g><path style="opacity:1" fill="#fdfefe" d="M 324.5,427.5 C 361.502,427.333 398.502,427.5 435.5,428C 446.061,432.534 448.227,439.7 442,449.5C 438.642,453.759 434.475,456.926 429.5,459C 420.588,461.183 411.588,462.849 402.5,464C 379.613,465.678 356.946,464.345 334.5,460C 326.37,456.868 320.536,451.368 317,443.5C 316.005,436.492 318.505,431.158 324.5,427.5 Z"/></g>
</svg>
